<mxfile host="app.diagrams.net" modified="2023-04-25T07:28:42.944Z" agent="Mozilla/5.0 (Windows NT 10.0; Win64; x64) AppleWebKit/537.36 (KHTML, like Gecko) Chrome/112.0.0.0 Safari/537.36" etag="ggTN_g0J7OupkzpHLSVV" version="21.2.1" type="device">
  <diagram name="第 1 页" id="E8oEpTzGUvyuNaN51fWy">
    <mxGraphModel dx="792" dy="476" grid="1" gridSize="10" guides="1" tooltips="1" connect="1" arrows="1" fold="1" page="1" pageScale="1" pageWidth="827" pageHeight="1169" math="0" shadow="0">
      <root>
        <mxCell id="0" />
        <mxCell id="1" parent="0" />
        <mxCell id="lFroKfWNAPlT9c4xP5ak-36" value="" style="ellipse;whiteSpace=wrap;html=1;aspect=fixed;strokeColor=none;fillColor=#7a7374;" parent="1" vertex="1">
          <mxGeometry x="215" y="80" width="10" height="10" as="geometry" />
        </mxCell>
        <mxCell id="lFroKfWNAPlT9c4xP5ak-37" value="" style="ellipse;whiteSpace=wrap;html=1;aspect=fixed;strokeColor=none;fillColor=#7a7374;" parent="1" vertex="1">
          <mxGeometry x="215" y="130" width="10" height="10" as="geometry" />
        </mxCell>
        <mxCell id="lFroKfWNAPlT9c4xP5ak-38" value="" style="ellipse;whiteSpace=wrap;html=1;aspect=fixed;strokeColor=none;fillColor=#7a7374;" parent="1" vertex="1">
          <mxGeometry x="215" y="180" width="10" height="10" as="geometry" />
        </mxCell>
        <mxCell id="lFroKfWNAPlT9c4xP5ak-39" value="" style="ellipse;whiteSpace=wrap;html=1;aspect=fixed;strokeColor=none;fillColor=#7a7374;" parent="1" vertex="1">
          <mxGeometry x="215" y="230" width="10" height="10" as="geometry" />
        </mxCell>
        <mxCell id="lFroKfWNAPlT9c4xP5ak-40" value="" style="ellipse;whiteSpace=wrap;html=1;aspect=fixed;strokeColor=none;fillColor=#7a7374;" parent="1" vertex="1">
          <mxGeometry x="215" y="280" width="10" height="10" as="geometry" />
        </mxCell>
        <mxCell id="lFroKfWNAPlT9c4xP5ak-41" value="" style="ellipse;whiteSpace=wrap;html=1;aspect=fixed;strokeColor=none;fillColor=#7a7374;" parent="1" vertex="1">
          <mxGeometry x="215" y="330" width="10" height="10" as="geometry" />
        </mxCell>
        <mxCell id="lFroKfWNAPlT9c4xP5ak-42" value="" style="ellipse;whiteSpace=wrap;html=1;aspect=fixed;strokeColor=none;fillColor=#7a7374;" parent="1" vertex="1">
          <mxGeometry x="215" y="380" width="10" height="10" as="geometry" />
        </mxCell>
        <mxCell id="lFroKfWNAPlT9c4xP5ak-43" value="" style="ellipse;whiteSpace=wrap;html=1;aspect=fixed;strokeColor=none;fillColor=#7a7374;" parent="1" vertex="1">
          <mxGeometry x="215" y="430" width="10" height="10" as="geometry" />
        </mxCell>
        <mxCell id="lFroKfWNAPlT9c4xP5ak-44" value="" style="ellipse;whiteSpace=wrap;html=1;aspect=fixed;strokeColor=none;fillColor=#7a7374;" parent="1" vertex="1">
          <mxGeometry x="215" y="480" width="10" height="10" as="geometry" />
        </mxCell>
        <mxCell id="lFroKfWNAPlT9c4xP5ak-45" value="" style="ellipse;whiteSpace=wrap;html=1;aspect=fixed;strokeColor=none;fillColor=#7a7374;" parent="1" vertex="1">
          <mxGeometry x="215" y="530" width="10" height="10" as="geometry" />
        </mxCell>
        <mxCell id="lFroKfWNAPlT9c4xP5ak-46" value="" style="ellipse;whiteSpace=wrap;html=1;aspect=fixed;strokeColor=none;fillColor=#7a7374;" parent="1" vertex="1">
          <mxGeometry x="215" y="584.5" width="10" height="10" as="geometry" />
        </mxCell>
        <mxCell id="lFroKfWNAPlT9c4xP5ak-47" value="" style="ellipse;whiteSpace=wrap;html=1;aspect=fixed;strokeColor=none;fillColor=#7a7374;" parent="1" vertex="1">
          <mxGeometry x="215" y="634.5" width="10" height="10" as="geometry" />
        </mxCell>
        <mxCell id="lFroKfWNAPlT9c4xP5ak-48" value="" style="ellipse;whiteSpace=wrap;html=1;aspect=fixed;strokeColor=none;fillColor=#7a7374;" parent="1" vertex="1">
          <mxGeometry x="215" y="684.5" width="10" height="10" as="geometry" />
        </mxCell>
        <mxCell id="lFroKfWNAPlT9c4xP5ak-49" value="" style="ellipse;whiteSpace=wrap;html=1;aspect=fixed;strokeColor=none;fillColor=#7a7374;" parent="1" vertex="1">
          <mxGeometry x="215" y="734.5" width="10" height="10" as="geometry" />
        </mxCell>
        <mxCell id="lFroKfWNAPlT9c4xP5ak-50" value="" style="ellipse;whiteSpace=wrap;html=1;aspect=fixed;strokeColor=none;fillColor=#7a7374;" parent="1" vertex="1">
          <mxGeometry x="215" y="784.5" width="10" height="10" as="geometry" />
        </mxCell>
        <mxCell id="lFroKfWNAPlT9c4xP5ak-51" value="" style="ellipse;whiteSpace=wrap;html=1;aspect=fixed;strokeColor=none;fillColor=#7a7374;" parent="1" vertex="1">
          <mxGeometry x="215" y="834.5" width="10" height="10" as="geometry" />
        </mxCell>
        <mxCell id="lFroKfWNAPlT9c4xP5ak-52" value="" style="ellipse;whiteSpace=wrap;html=1;aspect=fixed;strokeColor=none;fillColor=#7a7374;" parent="1" vertex="1">
          <mxGeometry x="215" y="884.5" width="10" height="10" as="geometry" />
        </mxCell>
        <mxCell id="lFroKfWNAPlT9c4xP5ak-53" value="" style="ellipse;whiteSpace=wrap;html=1;aspect=fixed;strokeColor=none;fillColor=#7a7374;" parent="1" vertex="1">
          <mxGeometry x="215" y="934.5" width="10" height="10" as="geometry" />
        </mxCell>
        <mxCell id="lFroKfWNAPlT9c4xP5ak-54" value="" style="ellipse;whiteSpace=wrap;html=1;aspect=fixed;strokeColor=none;fillColor=#7a7374;" parent="1" vertex="1">
          <mxGeometry x="215" y="984.5" width="10" height="10" as="geometry" />
        </mxCell>
        <mxCell id="lFroKfWNAPlT9c4xP5ak-55" value="" style="ellipse;whiteSpace=wrap;html=1;aspect=fixed;strokeColor=none;fillColor=#7a7374;" parent="1" vertex="1">
          <mxGeometry x="215" y="1034.5" width="10" height="10" as="geometry" />
        </mxCell>
        <mxCell id="lFroKfWNAPlT9c4xP5ak-58" value="" style="endArrow=none;html=1;rounded=1;entryX=0.5;entryY=1;entryDx=0;entryDy=0;exitX=0.5;exitY=0;exitDx=0;exitDy=0;strokeColor=#7a7374;strokeWidth=3;opacity=75;" parent="1" source="lFroKfWNAPlT9c4xP5ak-37" target="lFroKfWNAPlT9c4xP5ak-36" edge="1">
          <mxGeometry width="50" height="50" relative="1" as="geometry">
            <mxPoint x="235" y="130" as="sourcePoint" />
            <mxPoint x="295" y="100" as="targetPoint" />
          </mxGeometry>
        </mxCell>
        <mxCell id="lFroKfWNAPlT9c4xP5ak-59" value="" style="endArrow=none;html=1;rounded=1;entryX=0.5;entryY=1;entryDx=0;entryDy=0;exitX=0.5;exitY=0;exitDx=0;exitDy=0;strokeColor=#7a7374;strokeWidth=3;opacity=75;dashed=1;dashPattern=1 4;" parent="1" edge="1">
          <mxGeometry width="50" height="50" relative="1" as="geometry">
            <mxPoint x="219.74" y="80" as="sourcePoint" />
            <mxPoint x="219.74" y="40" as="targetPoint" />
          </mxGeometry>
        </mxCell>
        <mxCell id="lFroKfWNAPlT9c4xP5ak-60" value="" style="endArrow=none;html=1;rounded=1;entryX=0.5;entryY=1;entryDx=0;entryDy=0;exitX=0.5;exitY=0;exitDx=0;exitDy=0;strokeColor=#7a7374;strokeWidth=3;opacity=75;" parent="1" edge="1">
          <mxGeometry width="50" height="50" relative="1" as="geometry">
            <mxPoint x="219.74" y="180" as="sourcePoint" />
            <mxPoint x="219.74" y="140" as="targetPoint" />
          </mxGeometry>
        </mxCell>
        <mxCell id="lFroKfWNAPlT9c4xP5ak-61" value="" style="endArrow=none;html=1;rounded=1;entryX=0.5;entryY=1;entryDx=0;entryDy=0;exitX=0.5;exitY=0;exitDx=0;exitDy=0;strokeColor=#7a7374;strokeWidth=3;opacity=75;" parent="1" edge="1">
          <mxGeometry width="50" height="50" relative="1" as="geometry">
            <mxPoint x="219.74" y="230" as="sourcePoint" />
            <mxPoint x="219.74" y="190" as="targetPoint" />
          </mxGeometry>
        </mxCell>
        <mxCell id="lFroKfWNAPlT9c4xP5ak-62" value="" style="endArrow=none;html=1;rounded=1;entryX=0.5;entryY=1;entryDx=0;entryDy=0;exitX=0.5;exitY=0;exitDx=0;exitDy=0;strokeColor=#7a7374;strokeWidth=3;opacity=75;" parent="1" edge="1">
          <mxGeometry width="50" height="50" relative="1" as="geometry">
            <mxPoint x="219.74" y="280" as="sourcePoint" />
            <mxPoint x="219.74" y="240" as="targetPoint" />
          </mxGeometry>
        </mxCell>
        <mxCell id="lFroKfWNAPlT9c4xP5ak-63" value="" style="endArrow=none;html=1;rounded=1;entryX=0.5;entryY=1;entryDx=0;entryDy=0;exitX=0.5;exitY=0;exitDx=0;exitDy=0;strokeColor=#7a7374;strokeWidth=3;opacity=75;" parent="1" edge="1">
          <mxGeometry width="50" height="50" relative="1" as="geometry">
            <mxPoint x="219.74" y="330" as="sourcePoint" />
            <mxPoint x="219.74" y="290" as="targetPoint" />
          </mxGeometry>
        </mxCell>
        <mxCell id="lFroKfWNAPlT9c4xP5ak-64" value="" style="endArrow=none;html=1;rounded=1;entryX=0.5;entryY=1;entryDx=0;entryDy=0;exitX=0.5;exitY=0;exitDx=0;exitDy=0;strokeColor=#7a7374;strokeWidth=3;opacity=75;" parent="1" edge="1">
          <mxGeometry width="50" height="50" relative="1" as="geometry">
            <mxPoint x="219.74" y="380" as="sourcePoint" />
            <mxPoint x="219.74" y="340" as="targetPoint" />
          </mxGeometry>
        </mxCell>
        <mxCell id="lFroKfWNAPlT9c4xP5ak-65" value="" style="endArrow=none;html=1;rounded=1;entryX=0.5;entryY=1;entryDx=0;entryDy=0;exitX=0.5;exitY=0;exitDx=0;exitDy=0;strokeColor=#7a7374;strokeWidth=3;opacity=75;" parent="1" edge="1">
          <mxGeometry width="50" height="50" relative="1" as="geometry">
            <mxPoint x="219.74" y="430" as="sourcePoint" />
            <mxPoint x="219.74" y="390" as="targetPoint" />
          </mxGeometry>
        </mxCell>
        <mxCell id="lFroKfWNAPlT9c4xP5ak-66" value="" style="endArrow=none;html=1;rounded=1;entryX=0.5;entryY=1;entryDx=0;entryDy=0;exitX=0.5;exitY=0;exitDx=0;exitDy=0;strokeColor=#7a7374;strokeWidth=3;opacity=75;" parent="1" edge="1">
          <mxGeometry width="50" height="50" relative="1" as="geometry">
            <mxPoint x="219.74" y="480" as="sourcePoint" />
            <mxPoint x="219.74" y="440" as="targetPoint" />
          </mxGeometry>
        </mxCell>
        <mxCell id="lFroKfWNAPlT9c4xP5ak-67" value="" style="endArrow=none;html=1;rounded=1;entryX=0.5;entryY=1;entryDx=0;entryDy=0;exitX=0.5;exitY=0;exitDx=0;exitDy=0;strokeColor=#7a7374;strokeWidth=3;opacity=75;" parent="1" edge="1">
          <mxGeometry width="50" height="50" relative="1" as="geometry">
            <mxPoint x="219.74" y="530" as="sourcePoint" />
            <mxPoint x="219.74" y="490" as="targetPoint" />
          </mxGeometry>
        </mxCell>
        <mxCell id="lFroKfWNAPlT9c4xP5ak-69" value="" style="endArrow=none;html=1;rounded=1;entryX=0.5;entryY=1;entryDx=0;entryDy=0;strokeColor=#7a7374;strokeWidth=3;opacity=75;exitX=0.5;exitY=0;exitDx=0;exitDy=0;" parent="1" source="lFroKfWNAPlT9c4xP5ak-46" edge="1">
          <mxGeometry width="50" height="50" relative="1" as="geometry">
            <mxPoint x="220" y="580" as="sourcePoint" />
            <mxPoint x="219.74" y="540" as="targetPoint" />
          </mxGeometry>
        </mxCell>
        <mxCell id="lFroKfWNAPlT9c4xP5ak-70" value="" style="endArrow=none;html=1;rounded=1;entryX=0.5;entryY=1;entryDx=0;entryDy=0;strokeColor=#7a7374;strokeWidth=3;opacity=75;exitX=0.5;exitY=0;exitDx=0;exitDy=0;" parent="1" edge="1">
          <mxGeometry width="50" height="50" relative="1" as="geometry">
            <mxPoint x="220" y="639.5" as="sourcePoint" />
            <mxPoint x="219.74" y="594.5" as="targetPoint" />
          </mxGeometry>
        </mxCell>
        <mxCell id="lFroKfWNAPlT9c4xP5ak-71" value="" style="endArrow=none;html=1;rounded=1;entryX=0.5;entryY=1;entryDx=0;entryDy=0;exitX=0.5;exitY=0;exitDx=0;exitDy=0;strokeColor=#7a7374;strokeWidth=3;opacity=75;" parent="1" edge="1">
          <mxGeometry width="50" height="50" relative="1" as="geometry">
            <mxPoint x="219.74" y="684.5" as="sourcePoint" />
            <mxPoint x="219.74" y="644.5" as="targetPoint" />
          </mxGeometry>
        </mxCell>
        <mxCell id="lFroKfWNAPlT9c4xP5ak-72" value="" style="endArrow=none;html=1;rounded=1;entryX=0.5;entryY=1;entryDx=0;entryDy=0;exitX=0.5;exitY=0;exitDx=0;exitDy=0;strokeColor=#7a7374;strokeWidth=3;opacity=75;" parent="1" edge="1">
          <mxGeometry width="50" height="50" relative="1" as="geometry">
            <mxPoint x="219.74" y="734.5" as="sourcePoint" />
            <mxPoint x="219.74" y="694.5" as="targetPoint" />
          </mxGeometry>
        </mxCell>
        <mxCell id="lFroKfWNAPlT9c4xP5ak-73" value="" style="endArrow=none;html=1;rounded=1;entryX=0.5;entryY=1;entryDx=0;entryDy=0;exitX=0.5;exitY=0;exitDx=0;exitDy=0;strokeColor=#7a7374;strokeWidth=3;opacity=75;" parent="1" edge="1">
          <mxGeometry width="50" height="50" relative="1" as="geometry">
            <mxPoint x="219.74" y="784.5" as="sourcePoint" />
            <mxPoint x="219.74" y="744.5" as="targetPoint" />
          </mxGeometry>
        </mxCell>
        <mxCell id="lFroKfWNAPlT9c4xP5ak-74" value="" style="endArrow=none;html=1;rounded=1;entryX=0.5;entryY=1;entryDx=0;entryDy=0;exitX=0.5;exitY=0;exitDx=0;exitDy=0;strokeColor=#7a7374;strokeWidth=3;opacity=75;" parent="1" edge="1">
          <mxGeometry width="50" height="50" relative="1" as="geometry">
            <mxPoint x="219.74" y="834.5" as="sourcePoint" />
            <mxPoint x="219.74" y="794.5" as="targetPoint" />
          </mxGeometry>
        </mxCell>
        <mxCell id="lFroKfWNAPlT9c4xP5ak-75" value="" style="endArrow=none;html=1;rounded=1;entryX=0.5;entryY=1;entryDx=0;entryDy=0;exitX=0.5;exitY=0;exitDx=0;exitDy=0;strokeColor=#7a7374;strokeWidth=3;opacity=75;" parent="1" edge="1">
          <mxGeometry width="50" height="50" relative="1" as="geometry">
            <mxPoint x="219.74" y="884.5" as="sourcePoint" />
            <mxPoint x="219.74" y="844.5" as="targetPoint" />
          </mxGeometry>
        </mxCell>
        <mxCell id="lFroKfWNAPlT9c4xP5ak-76" value="" style="endArrow=none;html=1;rounded=1;entryX=0.5;entryY=1;entryDx=0;entryDy=0;exitX=0.5;exitY=0;exitDx=0;exitDy=0;strokeColor=#7a7374;strokeWidth=3;opacity=75;" parent="1" edge="1">
          <mxGeometry width="50" height="50" relative="1" as="geometry">
            <mxPoint x="219.74" y="934.5" as="sourcePoint" />
            <mxPoint x="219.74" y="894.5" as="targetPoint" />
          </mxGeometry>
        </mxCell>
        <mxCell id="lFroKfWNAPlT9c4xP5ak-77" value="" style="endArrow=none;html=1;rounded=1;entryX=0.5;entryY=1;entryDx=0;entryDy=0;exitX=0.5;exitY=0;exitDx=0;exitDy=0;strokeColor=#7a7374;strokeWidth=3;opacity=75;" parent="1" edge="1">
          <mxGeometry width="50" height="50" relative="1" as="geometry">
            <mxPoint x="219.74" y="984.5" as="sourcePoint" />
            <mxPoint x="219.74" y="944.5" as="targetPoint" />
          </mxGeometry>
        </mxCell>
        <mxCell id="lFroKfWNAPlT9c4xP5ak-78" value="" style="endArrow=none;html=1;rounded=1;entryX=0.5;entryY=1;entryDx=0;entryDy=0;exitX=0.5;exitY=0;exitDx=0;exitDy=0;strokeColor=#7a7374;strokeWidth=3;opacity=75;" parent="1" edge="1">
          <mxGeometry width="50" height="50" relative="1" as="geometry">
            <mxPoint x="219.74" y="1034.5" as="sourcePoint" />
            <mxPoint x="219.74" y="994.5" as="targetPoint" />
          </mxGeometry>
        </mxCell>
        <mxCell id="lFroKfWNAPlT9c4xP5ak-79" value="" style="endArrow=none;html=1;rounded=1;entryX=0.5;entryY=1;entryDx=0;entryDy=0;exitX=0.5;exitY=0;exitDx=0;exitDy=0;strokeColor=#7a7374;strokeWidth=3;opacity=75;dashed=1;" parent="1" edge="1">
          <mxGeometry width="50" height="50" relative="1" as="geometry">
            <mxPoint x="219.74" y="1084.5" as="sourcePoint" />
            <mxPoint x="219.74" y="1044.5" as="targetPoint" />
          </mxGeometry>
        </mxCell>
        <mxCell id="lFroKfWNAPlT9c4xP5ak-86" value="&lt;span style=&quot;font-size: 14px;&quot;&gt;&lt;i&gt;1941年&lt;/i&gt;&lt;/span&gt;" style="text;strokeColor=none;fillColor=none;html=1;fontSize=7;fontStyle=0;verticalAlign=middle;align=center;fontFamily=Comic Sans MS;" parent="1" vertex="1">
          <mxGeometry x="105" y="75" width="100" height="20" as="geometry" />
        </mxCell>
        <mxCell id="lFroKfWNAPlT9c4xP5ak-102" value="" style="endArrow=none;html=1;rounded=1;exitX=1;exitY=0.5;exitDx=0;exitDy=0;strokeColor=#5e616d;strokeWidth=2;" parent="1" source="lFroKfWNAPlT9c4xP5ak-36" edge="1">
          <mxGeometry width="50" height="50" relative="1" as="geometry">
            <mxPoint x="295" y="95" as="sourcePoint" />
            <mxPoint x="265" y="85" as="targetPoint" />
          </mxGeometry>
        </mxCell>
        <mxCell id="lFroKfWNAPlT9c4xP5ak-103" value="" style="endArrow=none;html=1;rounded=1;exitX=1;exitY=0.5;exitDx=0;exitDy=0;strokeColor=#5e616d;strokeWidth=2;" parent="1" edge="1">
          <mxGeometry width="50" height="50" relative="1" as="geometry">
            <mxPoint x="225" y="134.69" as="sourcePoint" />
            <mxPoint x="265" y="134.69" as="targetPoint" />
          </mxGeometry>
        </mxCell>
        <mxCell id="lFroKfWNAPlT9c4xP5ak-104" value="" style="endArrow=none;html=1;rounded=1;exitX=1;exitY=0.5;exitDx=0;exitDy=0;strokeColor=#5e616d;strokeWidth=2;" parent="1" edge="1">
          <mxGeometry width="50" height="50" relative="1" as="geometry">
            <mxPoint x="225" y="184.69" as="sourcePoint" />
            <mxPoint x="265" y="184.69" as="targetPoint" />
          </mxGeometry>
        </mxCell>
        <mxCell id="lFroKfWNAPlT9c4xP5ak-105" value="" style="endArrow=none;html=1;rounded=1;exitX=1;exitY=0.5;exitDx=0;exitDy=0;strokeColor=#5e616d;strokeWidth=2;" parent="1" edge="1">
          <mxGeometry width="50" height="50" relative="1" as="geometry">
            <mxPoint x="225" y="234.69" as="sourcePoint" />
            <mxPoint x="265" y="234.69" as="targetPoint" />
          </mxGeometry>
        </mxCell>
        <mxCell id="lFroKfWNAPlT9c4xP5ak-106" value="" style="endArrow=none;html=1;rounded=1;exitX=1;exitY=0.5;exitDx=0;exitDy=0;strokeColor=#5e616d;strokeWidth=2;" parent="1" edge="1">
          <mxGeometry width="50" height="50" relative="1" as="geometry">
            <mxPoint x="225" y="284.69" as="sourcePoint" />
            <mxPoint x="265" y="284.69" as="targetPoint" />
          </mxGeometry>
        </mxCell>
        <mxCell id="lFroKfWNAPlT9c4xP5ak-107" value="" style="endArrow=none;html=1;rounded=1;exitX=1;exitY=0.5;exitDx=0;exitDy=0;strokeColor=#5e616d;strokeWidth=2;" parent="1" edge="1">
          <mxGeometry width="50" height="50" relative="1" as="geometry">
            <mxPoint x="225" y="334.69" as="sourcePoint" />
            <mxPoint x="265" y="334.69" as="targetPoint" />
          </mxGeometry>
        </mxCell>
        <mxCell id="lFroKfWNAPlT9c4xP5ak-108" value="" style="endArrow=none;html=1;rounded=1;exitX=1;exitY=0.5;exitDx=0;exitDy=0;strokeColor=#5e616d;strokeWidth=2;" parent="1" edge="1">
          <mxGeometry width="50" height="50" relative="1" as="geometry">
            <mxPoint x="225" y="384.69" as="sourcePoint" />
            <mxPoint x="265" y="384.69" as="targetPoint" />
          </mxGeometry>
        </mxCell>
        <mxCell id="lFroKfWNAPlT9c4xP5ak-109" value="" style="endArrow=none;html=1;rounded=1;exitX=1;exitY=0.5;exitDx=0;exitDy=0;strokeColor=#5e616d;strokeWidth=2;" parent="1" edge="1">
          <mxGeometry width="50" height="50" relative="1" as="geometry">
            <mxPoint x="225" y="434.69" as="sourcePoint" />
            <mxPoint x="265" y="434.69" as="targetPoint" />
          </mxGeometry>
        </mxCell>
        <mxCell id="lFroKfWNAPlT9c4xP5ak-110" value="" style="endArrow=none;html=1;rounded=1;exitX=1;exitY=0.5;exitDx=0;exitDy=0;strokeColor=#5e616d;strokeWidth=2;" parent="1" edge="1">
          <mxGeometry width="50" height="50" relative="1" as="geometry">
            <mxPoint x="225" y="484.69" as="sourcePoint" />
            <mxPoint x="265" y="484.69" as="targetPoint" />
          </mxGeometry>
        </mxCell>
        <mxCell id="lFroKfWNAPlT9c4xP5ak-111" value="" style="endArrow=none;html=1;rounded=1;exitX=1;exitY=0.5;exitDx=0;exitDy=0;strokeColor=#5e616d;strokeWidth=2;" parent="1" edge="1">
          <mxGeometry width="50" height="50" relative="1" as="geometry">
            <mxPoint x="225" y="534.69" as="sourcePoint" />
            <mxPoint x="265" y="534.69" as="targetPoint" />
          </mxGeometry>
        </mxCell>
        <mxCell id="lFroKfWNAPlT9c4xP5ak-112" value="" style="endArrow=none;html=1;rounded=1;exitX=1;exitY=0.5;exitDx=0;exitDy=0;strokeColor=#5e616d;strokeWidth=2;" parent="1" edge="1">
          <mxGeometry width="50" height="50" relative="1" as="geometry">
            <mxPoint x="225" y="589.19" as="sourcePoint" />
            <mxPoint x="265" y="589.19" as="targetPoint" />
          </mxGeometry>
        </mxCell>
        <mxCell id="lFroKfWNAPlT9c4xP5ak-113" value="" style="endArrow=none;html=1;rounded=1;exitX=1;exitY=0.5;exitDx=0;exitDy=0;strokeColor=#5e616d;strokeWidth=2;" parent="1" edge="1">
          <mxGeometry width="50" height="50" relative="1" as="geometry">
            <mxPoint x="225" y="639.19" as="sourcePoint" />
            <mxPoint x="265" y="639.19" as="targetPoint" />
          </mxGeometry>
        </mxCell>
        <mxCell id="lFroKfWNAPlT9c4xP5ak-114" value="" style="endArrow=none;html=1;rounded=1;exitX=1;exitY=0.5;exitDx=0;exitDy=0;strokeColor=#5e616d;strokeWidth=2;" parent="1" edge="1">
          <mxGeometry width="50" height="50" relative="1" as="geometry">
            <mxPoint x="225" y="689.19" as="sourcePoint" />
            <mxPoint x="265" y="689.19" as="targetPoint" />
          </mxGeometry>
        </mxCell>
        <mxCell id="lFroKfWNAPlT9c4xP5ak-115" value="" style="endArrow=none;html=1;rounded=1;exitX=1;exitY=0.5;exitDx=0;exitDy=0;strokeColor=#5e616d;strokeWidth=2;" parent="1" edge="1">
          <mxGeometry width="50" height="50" relative="1" as="geometry">
            <mxPoint x="225" y="739.19" as="sourcePoint" />
            <mxPoint x="265" y="739.19" as="targetPoint" />
          </mxGeometry>
        </mxCell>
        <mxCell id="lFroKfWNAPlT9c4xP5ak-116" value="" style="endArrow=none;html=1;rounded=1;exitX=1;exitY=0.5;exitDx=0;exitDy=0;strokeColor=#5e616d;strokeWidth=2;" parent="1" edge="1">
          <mxGeometry width="50" height="50" relative="1" as="geometry">
            <mxPoint x="225" y="789.19" as="sourcePoint" />
            <mxPoint x="265" y="789.19" as="targetPoint" />
          </mxGeometry>
        </mxCell>
        <mxCell id="lFroKfWNAPlT9c4xP5ak-117" value="" style="endArrow=none;html=1;rounded=1;exitX=1;exitY=0.5;exitDx=0;exitDy=0;strokeColor=#5e616d;strokeWidth=2;" parent="1" edge="1">
          <mxGeometry width="50" height="50" relative="1" as="geometry">
            <mxPoint x="225" y="839.19" as="sourcePoint" />
            <mxPoint x="265" y="839.19" as="targetPoint" />
          </mxGeometry>
        </mxCell>
        <mxCell id="lFroKfWNAPlT9c4xP5ak-118" value="" style="endArrow=none;html=1;rounded=1;exitX=1;exitY=0.5;exitDx=0;exitDy=0;strokeColor=#5e616d;strokeWidth=2;" parent="1" edge="1">
          <mxGeometry width="50" height="50" relative="1" as="geometry">
            <mxPoint x="225" y="889.19" as="sourcePoint" />
            <mxPoint x="265" y="889.19" as="targetPoint" />
          </mxGeometry>
        </mxCell>
        <mxCell id="lFroKfWNAPlT9c4xP5ak-119" value="" style="endArrow=none;html=1;rounded=1;exitX=1;exitY=0.5;exitDx=0;exitDy=0;strokeColor=#5e616d;strokeWidth=2;" parent="1" edge="1">
          <mxGeometry width="50" height="50" relative="1" as="geometry">
            <mxPoint x="225" y="939.19" as="sourcePoint" />
            <mxPoint x="265" y="939.19" as="targetPoint" />
          </mxGeometry>
        </mxCell>
        <mxCell id="lFroKfWNAPlT9c4xP5ak-120" value="" style="endArrow=none;html=1;rounded=1;exitX=1;exitY=0.5;exitDx=0;exitDy=0;strokeColor=#5e616d;strokeWidth=2;" parent="1" edge="1">
          <mxGeometry width="50" height="50" relative="1" as="geometry">
            <mxPoint x="225" y="989.19" as="sourcePoint" />
            <mxPoint x="265" y="989.19" as="targetPoint" />
          </mxGeometry>
        </mxCell>
        <mxCell id="lFroKfWNAPlT9c4xP5ak-121" value="" style="endArrow=none;html=1;rounded=1;exitX=1;exitY=0.5;exitDx=0;exitDy=0;strokeColor=#5e616d;strokeWidth=2;" parent="1" edge="1">
          <mxGeometry width="50" height="50" relative="1" as="geometry">
            <mxPoint x="225" y="1039.19" as="sourcePoint" />
            <mxPoint x="265" y="1039.19" as="targetPoint" />
          </mxGeometry>
        </mxCell>
        <mxCell id="lFroKfWNAPlT9c4xP5ak-122" value="&lt;span style=&quot;font-size: 14px;&quot;&gt;&lt;i&gt;1942&lt;/i&gt;&lt;/span&gt;&lt;i style=&quot;border-color: var(--border-color); font-size: 14px;&quot;&gt;年&lt;/i&gt;" style="text;strokeColor=none;fillColor=none;html=1;fontSize=7;fontStyle=0;verticalAlign=middle;align=center;fontFamily=Comic Sans MS;" parent="1" vertex="1">
          <mxGeometry x="105" y="125" width="100" height="20" as="geometry" />
        </mxCell>
        <mxCell id="lFroKfWNAPlT9c4xP5ak-123" value="&lt;span style=&quot;font-size: 14px;&quot;&gt;&lt;i&gt;1944&lt;/i&gt;&lt;/span&gt;&lt;i style=&quot;border-color: var(--border-color); font-size: 14px;&quot;&gt;年&lt;/i&gt;" style="text;strokeColor=none;fillColor=none;html=1;fontSize=7;fontStyle=0;verticalAlign=middle;align=center;fontFamily=Comic Sans MS;" parent="1" vertex="1">
          <mxGeometry x="105" y="175" width="100" height="20" as="geometry" />
        </mxCell>
        <mxCell id="lFroKfWNAPlT9c4xP5ak-124" value="&lt;span style=&quot;font-size: 14px;&quot;&gt;&lt;i&gt;1945&lt;/i&gt;&lt;/span&gt;&lt;i style=&quot;border-color: var(--border-color); font-size: 14px;&quot;&gt;年&lt;/i&gt;" style="text;strokeColor=none;fillColor=none;html=1;fontSize=7;fontStyle=0;verticalAlign=middle;align=center;fontFamily=Comic Sans MS;" parent="1" vertex="1">
          <mxGeometry x="105" y="225" width="100" height="20" as="geometry" />
        </mxCell>
        <mxCell id="lFroKfWNAPlT9c4xP5ak-125" value="&lt;span style=&quot;font-size: 14px;&quot;&gt;&lt;i&gt;1951&lt;/i&gt;&lt;/span&gt;&lt;i style=&quot;border-color: var(--border-color); font-size: 14px;&quot;&gt;年&lt;/i&gt;" style="text;strokeColor=none;fillColor=none;html=1;fontSize=7;fontStyle=0;verticalAlign=middle;align=center;fontFamily=Comic Sans MS;" parent="1" vertex="1">
          <mxGeometry x="105" y="275" width="100" height="20" as="geometry" />
        </mxCell>
        <mxCell id="lFroKfWNAPlT9c4xP5ak-126" value="&lt;span style=&quot;font-size: 14px;&quot;&gt;&lt;i&gt;1953&lt;/i&gt;&lt;/span&gt;&lt;i style=&quot;border-color: var(--border-color); font-size: 14px;&quot;&gt;年&lt;/i&gt;" style="text;strokeColor=none;fillColor=none;html=1;fontSize=7;fontStyle=0;verticalAlign=middle;align=center;fontFamily=Comic Sans MS;" parent="1" vertex="1">
          <mxGeometry x="105" y="325" width="100" height="20" as="geometry" />
        </mxCell>
        <mxCell id="lFroKfWNAPlT9c4xP5ak-127" value="&lt;span style=&quot;font-size: 14px;&quot;&gt;&lt;i&gt;1954&lt;/i&gt;&lt;/span&gt;&lt;i style=&quot;border-color: var(--border-color); font-size: 14px;&quot;&gt;年&lt;/i&gt;" style="text;strokeColor=none;fillColor=none;html=1;fontSize=7;fontStyle=0;verticalAlign=middle;align=center;fontFamily=Comic Sans MS;" parent="1" vertex="1">
          <mxGeometry x="105" y="374.5" width="100" height="20" as="geometry" />
        </mxCell>
        <mxCell id="lFroKfWNAPlT9c4xP5ak-128" value="&lt;span style=&quot;font-size: 14px;&quot;&gt;&lt;i&gt;1957&lt;/i&gt;&lt;/span&gt;&lt;i style=&quot;border-color: var(--border-color); font-size: 14px;&quot;&gt;年&lt;/i&gt;" style="text;strokeColor=none;fillColor=none;html=1;fontSize=7;fontStyle=0;verticalAlign=middle;align=center;fontFamily=Comic Sans MS;" parent="1" vertex="1">
          <mxGeometry x="105" y="424.5" width="100" height="20" as="geometry" />
        </mxCell>
        <mxCell id="lFroKfWNAPlT9c4xP5ak-129" value="&lt;span style=&quot;font-size: 14px;&quot;&gt;&lt;i&gt;1959&lt;/i&gt;&lt;/span&gt;&lt;i style=&quot;border-color: var(--border-color); font-size: 14px;&quot;&gt;年&lt;/i&gt;" style="text;strokeColor=none;fillColor=none;html=1;fontSize=7;fontStyle=0;verticalAlign=middle;align=center;fontFamily=Comic Sans MS;" parent="1" vertex="1">
          <mxGeometry x="105" y="474.5" width="100" height="20" as="geometry" />
        </mxCell>
        <mxCell id="lFroKfWNAPlT9c4xP5ak-130" value="&lt;span style=&quot;font-size: 14px;&quot;&gt;&lt;i&gt;1960&lt;/i&gt;&lt;/span&gt;&lt;i style=&quot;border-color: var(--border-color); font-size: 14px;&quot;&gt;年&lt;/i&gt;" style="text;strokeColor=none;fillColor=none;html=1;fontSize=7;fontStyle=0;verticalAlign=middle;align=center;fontFamily=Comic Sans MS;" parent="1" vertex="1">
          <mxGeometry x="105" y="524.5" width="100" height="20" as="geometry" />
        </mxCell>
        <mxCell id="lFroKfWNAPlT9c4xP5ak-131" value="&lt;span style=&quot;font-size: 14px;&quot;&gt;&lt;i&gt;1961&lt;/i&gt;&lt;/span&gt;&lt;i style=&quot;border-color: var(--border-color); font-size: 14px;&quot;&gt;年&lt;/i&gt;" style="text;strokeColor=none;fillColor=none;html=1;fontSize=7;fontStyle=0;verticalAlign=middle;align=center;fontFamily=Comic Sans MS;" parent="1" vertex="1">
          <mxGeometry x="90" y="579.5" width="130" height="20" as="geometry" />
        </mxCell>
        <mxCell id="lFroKfWNAPlT9c4xP5ak-132" value="&lt;span style=&quot;font-size: 14px;&quot;&gt;&lt;i&gt;1965&lt;/i&gt;&lt;/span&gt;&lt;i style=&quot;border-color: var(--border-color); font-size: 14px;&quot;&gt;年&lt;/i&gt;" style="text;strokeColor=none;fillColor=none;html=1;fontSize=7;fontStyle=0;verticalAlign=middle;align=center;fontFamily=Comic Sans MS;" parent="1" vertex="1">
          <mxGeometry x="105" y="629.5" width="100" height="20" as="geometry" />
        </mxCell>
        <mxCell id="lFroKfWNAPlT9c4xP5ak-133" value="&lt;span style=&quot;font-size: 14px;&quot;&gt;&lt;i&gt;1966&lt;/i&gt;&lt;/span&gt;&lt;i style=&quot;border-color: var(--border-color); font-size: 14px;&quot;&gt;年&lt;/i&gt;" style="text;strokeColor=none;fillColor=none;html=1;fontSize=7;fontStyle=0;verticalAlign=middle;align=center;fontFamily=Comic Sans MS;" parent="1" vertex="1">
          <mxGeometry x="105" y="679.75" width="100" height="20" as="geometry" />
        </mxCell>
        <mxCell id="lFroKfWNAPlT9c4xP5ak-134" value="&lt;span style=&quot;font-size: 14px;&quot;&gt;&lt;i&gt;1969&lt;/i&gt;&lt;/span&gt;&lt;i style=&quot;border-color: var(--border-color); font-size: 14px;&quot;&gt;年&lt;/i&gt;" style="text;strokeColor=none;fillColor=none;html=1;fontSize=7;fontStyle=0;verticalAlign=middle;align=center;fontFamily=Comic Sans MS;" parent="1" vertex="1">
          <mxGeometry x="105" y="729.75" width="100" height="20" as="geometry" />
        </mxCell>
        <mxCell id="lFroKfWNAPlT9c4xP5ak-135" value="&lt;span style=&quot;font-size: 14px;&quot;&gt;&lt;i&gt;1975&lt;/i&gt;&lt;/span&gt;&lt;i style=&quot;border-color: var(--border-color); font-size: 14px;&quot;&gt;年&lt;/i&gt;" style="text;strokeColor=none;fillColor=none;html=1;fontSize=7;fontStyle=0;verticalAlign=middle;align=center;fontFamily=Comic Sans MS;" parent="1" vertex="1">
          <mxGeometry x="105" y="779.5" width="100" height="20" as="geometry" />
        </mxCell>
        <mxCell id="lFroKfWNAPlT9c4xP5ak-136" value="&lt;span style=&quot;font-size: 14px;&quot;&gt;&lt;i&gt;1970&lt;/i&gt;&lt;/span&gt;&lt;i style=&quot;border-color: var(--border-color); font-size: 14px;&quot;&gt;年&lt;/i&gt;" style="text;strokeColor=none;fillColor=none;html=1;fontSize=7;fontStyle=0;verticalAlign=middle;align=center;fontFamily=Comic Sans MS;" parent="1" vertex="1">
          <mxGeometry x="105" y="829.75" width="100" height="20" as="geometry" />
        </mxCell>
        <mxCell id="lFroKfWNAPlT9c4xP5ak-137" value="&lt;span style=&quot;font-size: 14px;&quot;&gt;&lt;i&gt;1983&lt;/i&gt;&lt;/span&gt;&lt;i style=&quot;border-color: var(--border-color); font-size: 14px;&quot;&gt;年&lt;/i&gt;" style="text;strokeColor=none;fillColor=none;html=1;fontSize=7;fontStyle=0;verticalAlign=middle;align=center;fontFamily=Comic Sans MS;" parent="1" vertex="1">
          <mxGeometry x="105" y="879.75" width="100" height="20" as="geometry" />
        </mxCell>
        <mxCell id="lFroKfWNAPlT9c4xP5ak-138" value="&lt;span style=&quot;font-size: 14px;&quot;&gt;&lt;i&gt;1989&lt;/i&gt;&lt;/span&gt;&lt;i style=&quot;border-color: var(--border-color); font-size: 14px;&quot;&gt;年&lt;/i&gt;" style="text;strokeColor=none;fillColor=none;html=1;fontSize=7;fontStyle=0;verticalAlign=middle;align=center;fontFamily=Comic Sans MS;" parent="1" vertex="1">
          <mxGeometry x="105" y="929.5" width="100" height="20" as="geometry" />
        </mxCell>
        <mxCell id="lFroKfWNAPlT9c4xP5ak-139" value="&lt;span style=&quot;font-size: 14px;&quot;&gt;&lt;i&gt;1997&lt;/i&gt;&lt;/span&gt;&lt;i style=&quot;border-color: var(--border-color); font-size: 14px;&quot;&gt;年&lt;/i&gt;" style="text;strokeColor=none;fillColor=none;html=1;fontSize=7;fontStyle=0;verticalAlign=middle;align=center;fontFamily=Comic Sans MS;" parent="1" vertex="1">
          <mxGeometry x="105" y="979.25" width="100" height="20" as="geometry" />
        </mxCell>
        <mxCell id="lFroKfWNAPlT9c4xP5ak-140" value="&lt;span style=&quot;font-size: 14px;&quot;&gt;&lt;i&gt;1998&lt;/i&gt;&lt;/span&gt;&lt;i style=&quot;border-color: var(--border-color); font-size: 14px;&quot;&gt;年&lt;/i&gt;" style="text;strokeColor=none;fillColor=none;html=1;fontSize=7;fontStyle=0;verticalAlign=middle;align=center;fontFamily=Comic Sans MS;" parent="1" vertex="1">
          <mxGeometry x="105" y="1029.5" width="100" height="20" as="geometry" />
        </mxCell>
        <mxCell id="lFroKfWNAPlT9c4xP5ak-141" value="&lt;font face=&quot;Times New Roman&quot;&gt;德国朱斯制成自动电子计算机&lt;/font&gt;" style="text;html=1;strokeColor=none;fillColor=none;align=left;verticalAlign=middle;whiteSpace=wrap;rounded=0;" parent="1" vertex="1">
          <mxGeometry x="275" y="75" width="380" height="20" as="geometry" />
        </mxCell>
        <mxCell id="lFroKfWNAPlT9c4xP5ak-142" value="&lt;font face=&quot;Times New Roman&quot;&gt;美国费米领导建成第一座原子反应堆&lt;/font&gt;" style="text;html=1;strokeColor=none;fillColor=none;align=left;verticalAlign=middle;whiteSpace=wrap;rounded=0;" parent="1" vertex="1">
          <mxGeometry x="275" y="125" width="480" height="20" as="geometry" />
        </mxCell>
        <mxCell id="lFroKfWNAPlT9c4xP5ak-143" value="&lt;font face=&quot;Times New Roman&quot;&gt;美国瓦克斯曼制成抗生素；&lt;br&gt;加拿大艾弗里证明遗传的物质基础是DNA&lt;/font&gt;" style="text;html=1;strokeColor=none;fillColor=none;align=left;verticalAlign=middle;whiteSpace=wrap;rounded=0;" parent="1" vertex="1">
          <mxGeometry x="275" y="175" width="360" height="20" as="geometry" />
        </mxCell>
        <mxCell id="lFroKfWNAPlT9c4xP5ak-144" value="&lt;font face=&quot;Times New Roman&quot;&gt;美国默奇勒等制成第一架电子计算机；&lt;br&gt;美国奥本海默领导研制的原子弹爆炸成功&lt;/font&gt;" style="text;html=1;strokeColor=none;fillColor=none;align=left;verticalAlign=middle;whiteSpace=wrap;rounded=0;" parent="1" vertex="1">
          <mxGeometry x="275" y="225" width="380" height="20" as="geometry" />
        </mxCell>
        <mxCell id="lFroKfWNAPlT9c4xP5ak-145" value="澳大利亚克里斯琴森发明射线干涉仪；&lt;br&gt;美国缪勒发明场发射离子显微镜；&lt;br&gt;美国麦克林托克提出移动的控制基因学说" style="text;html=1;strokeColor=none;fillColor=none;align=left;verticalAlign=middle;whiteSpace=wrap;rounded=0;" parent="1" vertex="1">
          <mxGeometry x="275" y="275" width="400" height="20" as="geometry" />
        </mxCell>
        <mxCell id="lFroKfWNAPlT9c4xP5ak-146" value="&lt;font face=&quot;Times New Roman&quot;&gt;美国沃森、英国克里克发现DNA的双螺旋结构&lt;/font&gt;" style="text;html=1;strokeColor=none;fillColor=none;align=left;verticalAlign=middle;whiteSpace=wrap;rounded=0;" parent="1" vertex="1">
          <mxGeometry x="275" y="325" width="300" height="20" as="geometry" />
        </mxCell>
        <mxCell id="lFroKfWNAPlT9c4xP5ak-147" value="&lt;font face=&quot;Times New Roman&quot;&gt;苏联建成第一个原子能发电站&lt;/font&gt;" style="text;html=1;strokeColor=none;fillColor=none;align=left;verticalAlign=middle;whiteSpace=wrap;rounded=0;" parent="1" vertex="1">
          <mxGeometry x="275" y="375" width="310" height="20" as="geometry" />
        </mxCell>
        <mxCell id="lFroKfWNAPlT9c4xP5ak-148" value="&lt;font face=&quot;Times New Roman&quot;&gt;苏联科罗廖夫领导发射第一颗人造地球卫星&lt;/font&gt;" style="text;html=1;strokeColor=none;fillColor=none;align=left;verticalAlign=middle;whiteSpace=wrap;rounded=0;" parent="1" vertex="1">
          <mxGeometry x="275" y="425" width="290" height="20" as="geometry" />
        </mxCell>
        <mxCell id="lFroKfWNAPlT9c4xP5ak-149" value="苏联发射月球探测器，拍到月球背面照片" style="text;html=1;strokeColor=none;fillColor=none;align=left;verticalAlign=middle;whiteSpace=wrap;rounded=0;" parent="1" vertex="1">
          <mxGeometry x="275" y="475" width="260" height="20" as="geometry" />
        </mxCell>
        <mxCell id="lFroKfWNAPlT9c4xP5ak-150" value="&lt;font face=&quot;Times New Roman&quot;&gt;美国梅曼制成第一台红宝石激光器&lt;/font&gt;" style="text;html=1;strokeColor=none;fillColor=none;align=left;verticalAlign=middle;whiteSpace=wrap;rounded=0;" parent="1" vertex="1">
          <mxGeometry x="275" y="525" width="340" height="20" as="geometry" />
        </mxCell>
        <mxCell id="lFroKfWNAPlT9c4xP5ak-151" value="&lt;font face=&quot;Times New Roman&quot;&gt;苏联科罗廖夫领导发射第一艘载人宇宙飞船成功并返回&lt;/font&gt;" style="text;html=1;strokeColor=none;fillColor=none;align=left;verticalAlign=middle;whiteSpace=wrap;rounded=0;" parent="1" vertex="1">
          <mxGeometry x="275" y="579.5" width="325" height="20" as="geometry" />
        </mxCell>
        <mxCell id="lFroKfWNAPlT9c4xP5ak-153" value="中国科学家首次人工合成结晶牛胰岛素；&lt;br&gt;苏联宇航员实现太空行走" style="text;html=1;strokeColor=none;fillColor=none;align=left;verticalAlign=middle;whiteSpace=wrap;rounded=0;" parent="1" vertex="1">
          <mxGeometry x="275" y="629.5" width="420" height="20" as="geometry" />
        </mxCell>
        <mxCell id="lFroKfWNAPlT9c4xP5ak-154" value="&lt;font face=&quot;Times New Roman&quot;&gt;苏联自动站在月球表面登陆&lt;/font&gt;" style="text;html=1;strokeColor=none;fillColor=none;align=left;verticalAlign=middle;whiteSpace=wrap;rounded=0;" parent="1" vertex="1">
          <mxGeometry x="275" y="679.5" width="380" height="20" as="geometry" />
        </mxCell>
        <mxCell id="lFroKfWNAPlT9c4xP5ak-155" value="&lt;font face=&quot;Times New Roman&quot;&gt;美国“阿波罗11号”飞船实现人类登月&lt;/font&gt;" style="text;html=1;strokeColor=none;fillColor=none;align=left;verticalAlign=middle;whiteSpace=wrap;rounded=0;" parent="1" vertex="1">
          <mxGeometry x="275" y="729.5" width="440" height="20" as="geometry" />
        </mxCell>
        <mxCell id="lFroKfWNAPlT9c4xP5ak-156" value="&lt;font face=&quot;Times New Roman&quot;&gt;个人计算机（PC）问世&lt;/font&gt;" style="text;html=1;strokeColor=none;fillColor=none;align=left;verticalAlign=middle;whiteSpace=wrap;rounded=0;" parent="1" vertex="1">
          <mxGeometry x="275" y="779.5" width="390" height="20" as="geometry" />
        </mxCell>
        <mxCell id="lFroKfWNAPlT9c4xP5ak-157" value="&lt;font face=&quot;Times New Roman&quot;&gt;美国人工合成生长激素基因，人工制造出超级细菌&lt;/font&gt;" style="text;html=1;strokeColor=none;fillColor=none;align=left;verticalAlign=middle;whiteSpace=wrap;rounded=0;" parent="1" vertex="1">
          <mxGeometry x="275" y="829.5" width="290" height="20" as="geometry" />
        </mxCell>
        <mxCell id="lFroKfWNAPlT9c4xP5ak-158" value="&lt;font face=&quot;Times New Roman&quot;&gt;移动电话网络出现&lt;/font&gt;" style="text;html=1;strokeColor=none;fillColor=none;align=left;verticalAlign=middle;whiteSpace=wrap;rounded=0;" parent="1" vertex="1">
          <mxGeometry x="275" y="879.5" width="400" height="20" as="geometry" />
        </mxCell>
        <mxCell id="lFroKfWNAPlT9c4xP5ak-159" value="&lt;font face=&quot;Times New Roman&quot;&gt;全球卫星定位系统（GPS）投入使用；&lt;br&gt;互联网出现&lt;/font&gt;" style="text;html=1;strokeColor=none;fillColor=none;align=left;verticalAlign=middle;whiteSpace=wrap;rounded=0;" parent="1" vertex="1">
          <mxGeometry x="275" y="929.5" width="340" height="20" as="geometry" />
        </mxCell>
        <mxCell id="lFroKfWNAPlT9c4xP5ak-160" value="&lt;font face=&quot;Times New Roman&quot;&gt;克隆羊“多莉”问世；&lt;br&gt;探测车实现火星登陆&lt;/font&gt;" style="text;html=1;strokeColor=none;fillColor=none;align=left;verticalAlign=middle;whiteSpace=wrap;rounded=0;" parent="1" vertex="1">
          <mxGeometry x="275" y="979.5" width="380" height="20" as="geometry" />
        </mxCell>
        <mxCell id="lFroKfWNAPlT9c4xP5ak-161" value="&lt;font face=&quot;Times New Roman&quot;&gt;国际空间站开始装配&lt;/font&gt;" style="text;html=1;strokeColor=none;fillColor=none;align=left;verticalAlign=middle;whiteSpace=wrap;rounded=0;" parent="1" vertex="1">
          <mxGeometry x="275" y="1029.5" width="340" height="20" as="geometry" />
        </mxCell>
      </root>
    </mxGraphModel>
  </diagram>
</mxfile>
